<?xml version="1.0" encoding="UTF-8" standalone="no"?>
<!DOCTYPE svg PUBLIC "-//W3C//DTD SVG 1.1//EN" "http://www.w3.org/Graphics/SVG/1.1/DTD/svg11.dtd">
<svg width="100%" height="100%" viewBox="0 0 200 200" version="1.1" xmlns="http://www.w3.org/2000/svg" xmlns:xlink="http://www.w3.org/1999/xlink" xml:space="preserve" xmlns:serif="http://www.serif.com/" style="fill-rule:evenodd;clip-rule:evenodd;stroke-linejoin:round;stroke-miterlimit:1.41421;">
    <g transform="matrix(3.62707,0,0,3.62707,-2036.5,-2467.06)">
        <path d="M577.48,704.387L569.391,704.387L569.391,697.806L577.48,697.806C579.289,697.806 580.771,699.288 580.771,701.123C580.771,702.906 579.289,704.387 577.48,704.387ZM588.941,714.064C588.941,710.557 586.582,707.512 583.403,706.415C585.704,704.961 587.269,702.385 587.269,699.45C587.269,694.981 583.621,691.335 579.18,691.335L562.865,691.335L562.865,723.854L579.18,723.854C584.499,723.854 588.941,719.492 588.941,714.064ZM597.028,712.448L614.933,712.448C614.933,712.199 614.933,711.898 614.933,711.653C614.933,704.935 610.08,699.45 602.76,699.45C595.385,699.45 590.558,704.935 590.558,711.653C590.558,718.423 595.385,723.854 602.76,723.854C610.08,723.854 613.591,719.659 614.688,714.064L608.08,714.064C607.504,716.943 605.803,718.974 602.76,718.974C599.662,718.974 597.304,716.094 597.028,712.448ZM608.08,709.212L597.386,709.212C597.715,706.333 599.907,704.387 602.76,704.387C605.584,704.387 607.668,706.361 608.08,709.212ZM595.44,692.952L610.025,692.952L610.025,697.806L595.44,697.806L595.44,692.952ZM569.391,709.212L577.48,709.212C579.289,709.212 582.387,710.007 582.387,713.435C582.387,715.244 580.962,717.354 579.18,717.354L569.391,717.354L569.391,709.212Z" style="fill:rgb(76,76,78);"/>
    </g>
</svg>
