<?xml version="1.0" encoding="UTF-8" standalone="no"?>
<!DOCTYPE svg PUBLIC "-//W3C//DTD SVG 1.1//EN" "http://www.w3.org/Graphics/SVG/1.1/DTD/svg11.dtd">
<svg width="100%" height="100%" viewBox="0 0 512 512" version="1.1" xmlns="http://www.w3.org/2000/svg" xmlns:xlink="http://www.w3.org/1999/xlink" xml:space="preserve" xmlns:serif="http://www.serif.com/" style="fill-rule:evenodd;clip-rule:evenodd;stroke-linejoin:round;stroke-miterlimit:1.41421;">
    <clipPath id="_clip1">
        <rect x="132.946" y="126.615" width="253.23" height="262.726"/>
    </clipPath>
    <g clip-path="url(#_clip1)">
        <path d="M374,512L138,512C61.8,512 0,450.2 0,374L0,138C0,61.8 61.8,0 138,0L374,0C448.055,0 508.508,58.369 511.854,131.599C511.951,133.72 512,135.854 512,138L512,374C512,450.2 450.2,512 374,512ZM374,0L138,0L94.965,415.515L429.902,409.976L374,0ZM371,291.5C371,297.7 367.7,303.6 362.5,307L265.4,371.1C259.2,375.2 251.05,375.2 244.85,371.1L149.525,308.2C144.325,304.8 141,298.9 141,292.7L141,222.5C141,216.4 144.2,210.7 149.2,207.2L242.8,142C249.1,137.6 257.45,137.5 263.75,141.7L362.475,207C367.675,210.4 371,216.3 371,222.5L371,291.5ZM267,293.4L267,340.9L336.05,294.7L300.275,271.2L267,293.4ZM243,293.5L208.15,270.2L173.625,294.4L243,340.833L243,293.5ZM252.1,239.4L229.6,255.1L255.1,272.2L278.3,256.6L252.1,239.4ZM346,271.9L346,240.6L322.4,256.4L346,271.9ZM164,240.6L164,271.1L186.2,255.5L164,240.6ZM300.4,241.8L336.2,217.7L266.6,169.3L266.8,217.4L300.4,241.8ZM242,216.3L242,169.3L173.3,217.4L207.65,240.4L242,216.3Z"/>
    </g>
</svg>
