<?xml version="1.0" encoding="UTF-8" standalone="no"?>
<!DOCTYPE svg PUBLIC "-//W3C//DTD SVG 1.1//EN" "http://www.w3.org/Graphics/SVG/1.1/DTD/svg11.dtd">
<svg width="100%" height="100%" viewBox="0 0 200 200" version="1.1" xmlns="http://www.w3.org/2000/svg" xmlns:xlink="http://www.w3.org/1999/xlink" xml:space="preserve" xmlns:serif="http://www.serif.com/" style="fill-rule:evenodd;clip-rule:evenodd;stroke-linejoin:round;stroke-miterlimit:1.41421;">
    <g transform="matrix(3.89535,0,0,3.89535,-723.281,-2656.27)">
        <path d="M217.585,706.689C217.393,706.307 217.229,705.949 217.118,705.593C216.762,704.824 216.433,704.111 216.104,703.344C215.968,703.07 215.83,702.795 215.665,702.494C224.082,699.067 227.483,694.159 227.565,694.076C230.197,697.285 231.924,701.316 232.309,705.703C232.336,706.25 232.391,706.798 232.391,707.402C232.088,707.321 224.851,705.757 217.585,706.689ZM222.986,725.251C222.767,723.965 221.643,717.738 218.846,710.062C225.728,708.965 231.678,710.829 232.144,710.968C231.157,716.917 227.785,722.044 222.986,725.251ZM211.086,728.898C206.151,728.898 201.627,727.197 198.008,724.374C198.008,724.374 197.816,724.236 197.542,723.991C197.679,724.128 197.843,724.236 198.008,724.374C198.063,724.291 202.176,715.436 214.733,711.075C214.788,711.075 214.815,711.048 214.871,711.048C217.858,718.835 219.093,725.361 219.395,727.197C216.845,728.268 214.048,728.898 211.086,728.898ZM195.266,721.825C191.867,718.066 189.811,713.077 189.811,707.622C189.811,707.348 189.811,707.154 189.837,706.937C190.193,706.937 200.723,707.183 211.689,703.892C212.293,705.072 212.869,706.307 213.417,707.539C213.115,707.566 212.841,707.65 212.567,707.786C201.052,711.46 195.266,721.797 195.266,721.797L195.266,721.825ZM201.983,688.347C202.285,688.73 206.233,694.076 209.908,700.63C199.708,703.344 190.825,703.206 190.276,703.206C191.674,696.599 196.061,691.143 201.983,688.347ZM206.014,686.922C206.014,686.922 205.987,686.949 205.932,686.949C205.987,686.949 205.987,686.922 206.014,686.922ZM211.086,686.317C216.461,686.317 221.423,688.32 225.152,691.609C225.097,691.692 222.054,696.299 214.048,699.314C210.428,692.623 206.398,687.332 206.097,686.922C207.714,686.537 209.359,686.317 211.086,686.317ZM235.983,706.689C235.956,705.292 235.763,703.921 235.517,702.577C235.188,700.959 234.722,699.396 234.09,697.888C233.433,696.407 232.693,695.01 231.76,693.638C230.856,692.323 229.841,691.115 228.717,689.964C227.593,688.868 226.332,687.799 225.016,686.922C223.699,686.017 222.273,685.275 220.792,684.616C219.312,683.988 217.694,683.492 216.132,683.191C214.487,682.864 212.786,682.671 211.086,682.671C209.414,682.671 207.714,682.864 206.068,683.191C204.506,683.492 202.889,683.988 201.408,684.616C199.927,685.275 198.474,686.017 197.158,686.922C195.869,687.799 194.58,688.868 193.484,689.964C192.333,691.115 191.317,692.323 190.441,693.638C189.508,695.01 188.74,696.407 188.165,697.888C187.479,699.396 187.013,700.959 186.684,702.577C186.41,703.837 186.246,705.154 186.218,706.415C186.163,706.798 186.163,707.183 186.163,707.622C186.163,709.293 186.328,710.968 186.684,712.611C187.013,714.23 187.479,715.792 188.165,717.3C188.74,718.78 189.508,720.179 190.441,721.55C191.317,722.839 192.333,724.073 193.484,725.225C194.58,726.376 195.869,727.39 197.158,728.268C198.474,729.146 199.927,729.913 201.408,730.544C202.889,731.201 204.506,731.695 206.068,732.024C207.714,732.382 209.414,732.49 211.086,732.49C212.786,732.49 214.487,732.382 216.132,732.024C217.694,731.695 219.312,731.201 220.792,730.544C222.273,729.913 223.699,729.146 225.016,728.268C226.332,727.39 227.593,726.376 228.717,725.225C229.841,724.073 230.856,722.839 231.76,721.55C232.693,720.179 233.433,718.78 234.09,717.3C234.722,715.792 235.188,714.23 235.517,712.611C235.845,710.968 236.038,709.267 236.038,707.622C236.038,707.265 236.038,706.992 235.983,706.689Z" style="fill:rgb(76,76,78);"/>
    </g>
</svg>
