<?xml version="1.0" encoding="UTF-8" standalone="no"?>
<!DOCTYPE svg PUBLIC "-//W3C//DTD SVG 1.1//EN" "http://www.w3.org/Graphics/SVG/1.1/DTD/svg11.dtd">
<svg width="100%" height="100%" viewBox="0 0 200 200" version="1.1" xmlns="http://www.w3.org/2000/svg" xmlns:xlink="http://www.w3.org/1999/xlink" xml:space="preserve" xmlns:serif="http://www.serif.com/" style="fill-rule:evenodd;clip-rule:evenodd;stroke-linejoin:round;stroke-miterlimit:1.41421;">
    <g transform="matrix(3.82135,0,0,3.82135,-224.409,-252.776)">
        <path d="M88.937,82.289L88.937,78.231C88.937,76.284 90.225,75.818 91.158,75.818C92.063,75.818 96.834,75.818 96.834,75.818L96.834,67.154L89.019,67.154C80.328,67.154 78.381,73.569 78.381,77.737L78.381,82.289L73.335,82.289L73.335,92.406L78.435,92.406C78.435,103.894 78.435,117.686 78.435,117.686L88.553,117.686C88.553,117.686 88.553,103.702 88.553,92.406L96.038,92.406L96.368,88.431L96.971,82.289L88.937,82.289Z" style="fill:rgb(76,76,78);"/>
    </g>
</svg>
