<?xml version="1.0" encoding="UTF-8" standalone="no"?>
<!DOCTYPE svg PUBLIC "-//W3C//DTD SVG 1.1//EN" "http://www.w3.org/Graphics/SVG/1.1/DTD/svg11.dtd">
<svg width="100%" height="100%" viewBox="0 0 200 200" version="1.1" xmlns="http://www.w3.org/2000/svg" xmlns:xlink="http://www.w3.org/1999/xlink" xml:space="preserve" xmlns:serif="http://www.serif.com/" style="fill-rule:evenodd;clip-rule:evenodd;stroke-linejoin:round;stroke-miterlimit:1.41421;">
    <g transform="matrix(3.97959,0,0,3.97959,-740.086,-268.111)">
        <path d="M227.099,92.406C227.099,83.577 219.943,76.394 211.086,76.394C202.257,76.394 195.074,83.577 195.074,92.406C195.074,101.262 202.257,108.418 211.086,108.418C219.943,108.418 227.099,101.262 227.099,92.406ZM226.797,74.228C225.372,74.228 224.22,75.379 224.22,76.805C224.22,78.231 225.372,79.382 226.797,79.382C228.223,79.382 229.375,78.231 229.375,76.805C229.375,75.379 228.223,74.228 226.797,74.228ZM198.008,70.527L224.193,70.527C229.046,70.527 232.994,74.474 232.994,79.328L232.994,105.512C232.994,110.365 229.046,114.313 224.193,114.313L198.008,114.313C193.154,114.313 189.207,110.365 189.207,105.512L189.207,79.328C189.207,74.474 193.154,70.527 198.008,70.527ZM224.193,67.593L198.008,67.593C191.565,67.593 186.273,72.856 186.273,79.328L186.273,105.512C186.273,111.955 191.565,117.247 198.008,117.247L224.193,117.247C230.664,117.247 235.928,111.955 235.928,105.512L235.928,79.328C235.928,72.856 230.664,67.593 224.193,67.593ZM198.419,92.406C198.419,85.415 204.095,79.711 211.086,79.711C218.106,79.711 223.781,85.415 223.781,92.406C223.781,99.425 218.106,105.101 211.086,105.101C204.095,105.101 198.419,99.425 198.419,92.406Z" style="fill:rgb(76,76,78);"/>
    </g>
</svg>
