<?xml version="1.0" encoding="UTF-8" standalone="no"?>
<!DOCTYPE svg PUBLIC "-//W3C//DTD SVG 1.1//EN" "http://www.w3.org/Graphics/SVG/1.1/DTD/svg11.dtd">
<svg width="100%" height="100%" viewBox="0 0 200 200" version="1.1" xmlns="http://www.w3.org/2000/svg" xmlns:xlink="http://www.w3.org/1999/xlink" xml:space="preserve" xmlns:serif="http://www.serif.com/" style="fill-rule:evenodd;clip-rule:evenodd;stroke-linejoin:round;stroke-miterlimit:1.41421;">
    <g transform="matrix(3.84208,0,0,3.82297,-2645.53,-719.108)">
        <path d="M740.126,200.023C738.288,200.819 736.288,201.367 734.177,201.641C736.342,200.353 737.986,198.378 738.756,195.965C736.754,197.144 734.506,197.994 732.148,198.46C730.281,196.459 727.569,195.225 724.553,195.225C718.85,195.225 714.188,199.804 714.188,205.424C714.188,206.247 714.326,207.015 714.49,207.756C705.854,207.344 698.203,203.286 693.103,197.089C692.226,198.625 691.678,200.353 691.678,202.217C691.678,205.781 693.542,208.907 696.283,210.717C694.584,210.689 692.993,210.223 691.596,209.455C691.596,209.51 691.596,209.538 691.596,209.592C691.596,210.908 691.843,212.115 692.308,213.266C693.57,216.475 696.449,218.887 699.932,219.573C699.025,219.82 698.148,219.956 697.189,219.956C696.531,219.956 695.873,219.874 695.241,219.737C696.586,223.795 700.396,226.756 704.922,226.866C701.356,229.608 696.915,231.226 692.062,231.226C691.211,231.226 690.417,231.17 689.567,231.088C694.173,233.968 699.629,235.667 705.47,235.667C721.674,235.667 731.682,224.453 734.285,212.8C734.753,210.717 734.971,208.66 734.971,206.631C734.971,206.192 734.971,205.727 734.971,205.315C736.973,203.862 738.756,202.052 740.126,200.023Z" style="fill:rgb(76,76,78);"/>
    </g>
</svg>
